<svg xmlns="http://www.w3.org/2000/svg" width="116" height="50" viewBox="0 0 116 50">
  <g fill="none" fill-rule="evenodd">
    <polygon fill="#5CB8D9" points="32.625 25.968 34.549 24.563 29.22 17.77 27.186 20.001"/>
    <polygon fill="#6C9" points="41.22 35.395 42.654 34.895 36.819 27.456 34.993 28.564"/>
    <polygon fill="#5CB8D9" points="13.152 35.395 .059 49.756 17.597 36.946"/>
    <polygon fill="#36C" points="19.38 28.564 17.554 27.457 11.718 34.895 13.152 35.395"/>
    <polygon fill="#5CB8D9" points="27.186 20.001 25.152 17.77 19.823 24.563 21.747 25.968"/>
    <polygon fill="#2B9182" points="29.698 31.776 36.775 36.946 41.22 35.395 34.992 28.564"/>
    <polygon fill="#2987B5" points="32.625 25.968 27.186 20.001 21.747 25.968 27.186 29.941"/>
    <polygon fill="#5CB8D9" points="29.698 31.776 34.992 28.564 32.625 25.968 27.186 29.941"/>
    <polygon fill="#5CB8D9" points="27.186 29.941 21.747 25.968 19.379 28.564 24.674 31.776"/>
    <polygon fill="#6C9" points="27.186 33.3 34.503 37.739 36.775 36.946 29.698 31.776"/>
    <polygon fill="#36C" points="19.869 37.739 27.186 40.292 34.503 37.739 27.186 33.3"/>
    <polygon fill="#36C" points="19.38 28.564 13.152 35.395 17.597 36.946 24.674 31.776"/>
    <polygon fill="#36C" points="24.674 31.776 17.597 36.946 19.869 37.738 27.186 33.3"/>
    <polygon fill="#36C" points="27.186 15.178 22.372 9.041 20.428 12.588 25.152 17.77"/>
    <polygon fill="#000" points="32.033 8.999 27.22 .193 32.028 9.005"/>
    <polygon fill="#2B9182" points="34.549 24.563 38.831 21.435 33.976 12.553 29.22 17.77"/>
    <polygon fill="#6C9" points="36.818 27.457 40.802 25.04 38.831 21.435 34.549 24.563"/>
    <polygon fill="#175478" points="32.028 9.005 27.22 .193 22.371 9.04 27.186 15.178"/>
    <polygon fill="#174DAB" points="25.152 17.77 20.428 12.588 15.568 21.455 19.824 24.563"/>
    <polygon fill="#0D2EA1" points="17.554 27.457 13.595 25.056 8.768 33.865 11.718 34.895"/>
    <polygon fill="#36C" points="11.718 34.895 8.768 33.865 .059 49.757"/>
    <polygon fill="#36C" points="19.823 24.563 15.568 21.455 13.595 25.055 17.554 27.457"/>
    <polygon fill="#6C9" points="32.034 9.017 32.028 9.006 27.186 15.178 29.22 17.77 33.976 12.553 32.033 8.999 32.028 9.006"/>
    <polygon fill="#36C" points="27.186 40.292 54.313 49.757 34.503 37.738"/>
    <polygon fill="#30A35E" points="42.654 34.895 45.623 33.859 40.802 25.04 36.818 27.457"/>
    <polygon fill="#6C9" points="19.869 37.739 .059 49.757 27.186 40.292"/>
    <polygon fill="#6C9" points="54.313 49.757 45.622 33.859 42.654 34.895"/>
    <polygon fill="#5CB8D9" points="36.775 36.946 54.313 49.757 41.22 35.395"/>
    <g fill="#3D3B3D" transform="translate(58.808 10.323)">
      <polygon points="56.615 17.206 56.615 18.278 51.805 18.964 51.805 17.892"/>
      <path d="M34.1640033,6.58651613 L34.1640033,16.1797419 C34.1640033,16.8671613 33.9197248,17.4549032 33.4305214,17.9426452 C32.9416412,18.4310323 32.352917,18.6752258 31.6643487,18.6752258 L27.1361482,18.6752258 L27.1361482,16.2884516 L31.6643487,16.2884516 C31.7490061,16.2884516 31.7913348,16.252 31.7913348,16.1797419 L31.7913348,6.58651613 L34.1640033,6.58651613 Z"/>
      <path d="M54.5753827 6.69496774C55.263951 6.69496774 55.8526752 6.93916129 56.3412323 7.42722581 56.8304357 7.9156129 57.0750373 8.50335484 57.0750373 9.19012903L57.0750373 15.0043226 34.1403187 15.0043226 34.1403187 12.6356129 48.3420791 12.6356129 48.3420791 9.19012903C48.3420791 8.50335484 48.5866808 7.9156129 49.075561 7.42722581 49.5647643 6.93916129 50.1534886 6.69496774 50.8414106 6.69496774L54.5753827 6.69496774zM54.5753827 9.08206452L50.8414106 9.08206452C50.7570763 9.08206452 50.7150708 9.11819355 50.7150708 9.19012903L50.7150708 12.5088387C50.7150708 12.5930323 50.7570763 12.6356129 50.8414106 12.6356129L54.5753827 12.6356129C54.659717 12.6356129 54.7023688 12.5930323 54.7023688 12.5088387L54.7023688 9.19012903C54.7023688 9.11819355 54.659717 9.08206452 54.5753827 9.08206452zM18.840985 11.9663226L18.840985 6.76051613 21.2139766 6.76051613 21.2139766 11.9663226C21.2139766 12.6534194 20.9690518 13.2411613 20.4804947 13.7292258 19.9912914 14.2176129 19.4025671 14.4618065 18.7146451 14.4618065L15.5716591 14.4618065C14.8830908 14.4618065 14.2943666 14.2176129 13.8058095 13.7292258 13.316283 13.2411613 13.0720045 12.6534194 13.0720045 11.9663226L13.0720045 6.79664516 15.444673 6.79664516 15.444673 11.9663226C15.444673 12.0508387 15.4873248 12.0927742 15.5716591 12.0927742L18.7146451 12.0927742C18.7989794 12.0927742 18.840985 12.0508387 18.840985 11.9663226"/>
      <path d="M13.3608735,11.9663226 L13.3608735,6.76051613 L15.7338652,6.76051613 L15.7338652,11.9663226 C15.7338652,12.6534194 15.4889404,13.2411613 15.0003833,13.7292258 C14.5111799,14.2176129 13.9224557,14.4618065 13.2345337,14.4618065 L10.0915476,14.4618065 C9.40265627,14.4618065 8.81425515,14.2176129 8.32537493,13.7292258 C7.83617159,13.2411613 7.59156992,12.6534194 7.59156992,11.9663226 L7.59156992,6.79664516 L9.96456156,6.79664516 L9.96456156,11.9663226 C9.96456156,12.0508387 10.0072134,12.0927742 10.0915476,12.0927742 L13.2345337,12.0927742 C13.318868,12.0927742 13.3608735,12.0508387 13.3608735,11.9663226"/>
      <path d="M2.75521003,6.73380645 L2.75521003,16.0238065 C2.75521003,16.1086452 2.79786184,16.1505806 2.8821961,16.1505806 L7.3425415,16.1505806 C7.42752201,16.1505806 7.46952758,16.1086452 7.46952758,16.0238065 L7.46952758,6.73380645 L9.86061393,6.73380645 L9.86061393,16.0238065 C9.86061393,16.7231613 9.61601226,17.3170323 9.12680891,17.8050968 C8.63792869,18.2934839 8.04306518,18.5373548 7.3425415,18.5373548 L2.8821961,18.5373548 C2.18199554,18.5373548 1.58713203,18.2934839 1.09792869,17.8050968 C0.608725348,17.3170323 0.364769916,16.7231613 0.364769916,16.0238065 L0.364769916,6.73380645 L2.75521003,6.73380645 Z"/>
      <polygon points="24.168 14.462 26.559 14.462 26.559 .262 24.168 .262"/>
      <path d="M43.4847811 23.4769032C44.1113103 23.4769032 44.647366 23.6991613 45.0926251 24.144 45.5378841 24.5881935 45.7605136 25.1233548 45.7605136 25.7491613L45.7605136 33.0262581 38.3226195 33.0262581C37.6960903 33.0262581 37.1600345 32.804 36.7147755 32.3598065 36.2695164 31.9149677 36.0465638 31.380129 36.0465638 30.7546452L36.0465638 27.1652903 43.6001348 27.1652903 43.6001348 25.7491613C43.6001348 25.6727097 43.5616836 25.6336774 43.4847811 25.6336774L36.0465638 25.6336774 36.0465638 23.4769032 43.4847811 23.4769032zM43.6001348 30.8694839L43.6001348 29.3385161 38.2072657 29.3385161 38.2072657 30.7546452C38.2072657 30.8310968 38.2453939 30.8694839 38.3226195 30.8694839L43.6001348 30.8694839zM29.0537994 23.4209677L34.364273 23.4209677 34.364273 25.5777419 29.0537994 25.5777419C28.9765738 25.5777419 28.9381226 25.6164516 28.9381226 25.6932258L28.9381226 32.9703226 26.7777437 32.9703226 26.7777437 25.6932258C26.7777437 25.0674194 27.0003733 24.5322581 27.4459554 24.0880645 27.8915376 23.6432258 28.4272702 23.4209677 29.0537994 23.4209677"/>
      <polygon points="6.945 26.469 11.249 21.332 13.64 21.332 13.64 33.187 11.447 33.187 11.447 24.493 6.945 29.844 2.426 24.493 2.426 33.187 .249 33.187 .249 21.332 2.623 21.332"/>
      <path d="M57.0751343 25.7278065L57.0751343 26.1352258 54.935112 26.1352258 54.935112 25.7278065C54.935112 25.6516774 54.8966607 25.6136129 54.8204045 25.6136129L49.707034 25.6136129C49.6307777 25.6136129 49.5929727 25.6516774 49.5929727 25.7278065L49.5929727 27.0323226C49.5929727 27.0974839 49.6307777 27.1300645 49.707034 27.1300645L54.8204045 27.1300645C55.4517805 27.1300645 55.9855744 27.3503871 56.4217861 27.7907097 56.8570284 28.2310323 57.0751343 28.7613548 57.0751343 29.3810323L57.0751343 30.685871C57.0751343 31.3055484 56.8570284 31.8355484 56.4217861 32.275871 55.9855744 32.7161935 55.4517805 32.9365161 54.8204045 32.9365161L49.707034 32.9365161C49.0859978 32.9365161 48.5554351 32.7161935 48.1140535 32.275871 47.6733181 31.8355484 47.4523042 31.3055484 47.4523042 30.685871L47.4523042 30.278129 49.5929727 30.278129 49.5929727 30.685871C49.5929727 30.7616774 49.6307777 30.7997419 49.707034 30.7997419L54.8204045 30.7997419C54.8966607 30.7997419 54.935112 30.7616774 54.935112 30.685871L54.935112 29.3810323C54.935112 29.3155484 54.8966607 29.2829677 54.8204045 29.2829677L49.707034 29.2829677C49.0859978 29.2829677 48.5554351 29.0629677 48.1140535 28.6223226 47.6733181 28.1823226 47.4523042 27.6523226 47.4523042 27.0323226L47.4523042 25.7278065C47.4523042 25.108129 47.6733181 24.5778065 48.1140535 24.1374839 48.5554351 23.6968387 49.0859978 23.4768387 49.707034 23.4768387L54.8204045 23.4768387C55.4517805 23.4768387 55.9855744 23.6968387 56.4217861 24.1374839 56.8570284 24.5778065 57.0751343 25.108129 57.0751343 25.7278065M17.5681515 32.9704516C16.9416223 32.9704516 16.4055666 32.7481935 15.9603075 32.3033548 15.5150485 31.8591613 15.2924189 31.324 15.2924189 30.6981935L15.2924189 23.4210968 22.7303131 23.4210968C23.3568423 23.4210968 23.8928981 23.6433548 24.3384802 24.0875484 24.7834162 24.5323871 25.0063688 25.0672258 25.0063688 25.6927097L25.0063688 29.2820645 17.4527978 29.2820645 17.4527978 30.6981935C17.4527978 30.7749677 17.491249 30.8136774 17.5681515 30.8136774L25.0063688 30.8136774 25.0063688 32.9704516 17.5681515 32.9704516zM17.4527978 25.577871L17.4527978 27.1088387 22.84599 27.1088387 22.84599 25.6927097C22.84599 25.6162581 22.8075387 25.577871 22.7303131 25.577871L17.4527978 25.577871z"/>
    </g>
  </g>
</svg>
